<svg width="0" height="0" class="hidden">
    <symbol xmlns="http://www.w3.org/2000/svg" viewBox="0 0 448 512" id="long-arrow-right">
<path d="M313.941 216H12c-6.627 0-12 5.373-12 12v56c0 6.627 5.373 12 12 12h301.941v46.059c0 21.382 25.851 32.09 40.971 16.971l86.059-86.059c9.373-9.373 9.373-24.569 0-33.941l-86.059-86.059c-15.119-15.119-40.971-4.411-40.971 16.971V216z"></path>
    </symbol>
    <symbol xmlns="http://www.w3.org/2000/svg" viewBox="0 0 512 512" id="mail">
<path d="M464 64H48C21.49 64 0 85.49 0 112v288c0 26.51 21.49 48 48 48h416c26.51 0 48-21.49 48-48V112c0-26.51-21.49-48-48-48zm0 48v40.805c-22.422 18.259-58.168 46.651-134.587 106.49-16.841 13.247-50.201 45.072-73.413 44.701-23.208.375-56.579-31.459-73.413-44.701C106.18 199.465 70.425 171.067 48 152.805V112h416zM48 400V214.398c22.914 18.251 55.409 43.862 104.938 82.646 21.857 17.205 60.134 55.186 103.062 54.955 42.717.231 80.509-37.199 103.053-54.947 49.528-38.783 82.032-64.401 104.947-82.653V400H48z"></path>
    </symbol>
    <symbol xmlns="http://www.w3.org/2000/svg" viewBox="-53 1 511 511.999" id="archive">
<path d="M276.41 3.957C274.062 1.484 270.844 0 267.508 0H67.778C30.921 0 .5 30.3.5 67.152v377.692C.5 481.699 30.922 512 67.777 512h271.086c36.856 0 67.278-30.3 67.278-67.156V144.94c0-3.214-1.485-6.304-3.586-8.656zm3.586 39.7l84.469 88.671h-54.91c-16.325 0-29.559-13.11-29.559-29.433zm58.867 443.609H67.777c-23.125 0-42.543-19.168-42.543-42.422V67.152c0-23.125 19.293-42.418 42.543-42.418h187.485v78.16c0 30.051 24.242 54.168 54.293 54.168h71.851v287.782c0 23.254-19.293 42.422-42.543 42.422zm0 0"></path>
<path d="M305.102 401.934H101.539c-6.8 0-12.367 5.562-12.367 12.367 0 6.8 5.566 12.367 12.367 12.367h203.688c6.8 0 12.367-5.566 12.367-12.367 0-6.805-5.567-12.367-12.492-12.367zm-110.809-44.399c2.352 2.473 5.566 3.957 9.027 3.957 3.465 0 6.68-1.484 9.028-3.957l72.472-77.789c4.7-4.95 4.328-12.863-.617-17.437-4.95-4.7-12.863-4.332-17.437.617l-51.079 54.785V182.664c0-6.805-5.566-12.367-12.367-12.367-6.8 0-12.367 5.562-12.367 12.367v135.047L140 262.926c-4.7-4.946-12.492-5.317-17.438-.617-4.945 4.699-5.316 12.492-.617 17.437zm0 0"></path>
    </symbol>
    <symbol xmlns="http://www.w3.org/2000/svg" viewBox="0 0 512 512" id="tasks">
<path d="M139.61 35.5a12 12 0 0 0-17 0L58.93 98.81l-22.7-22.12a12 12 0 0 0-17 0L3.53 92.41a12 12 0 0 0 0 17l47.59 47.4a12.78 12.78 0 0 0 17.61 0l15.59-15.62L156.52 69a12.09 12.09 0 0 0 .09-17zm0 159.19a12 12 0 0 0-17 0l-63.68 63.72-22.7-22.1a12 12 0 0 0-17 0L3.53 252a12 12 0 0 0 0 17L51 316.5a12.77 12.77 0 0 0 17.6 0l15.7-15.69 72.2-72.22a12 12 0 0 0 .09-16.9zM64 368c-26.49 0-48.59 21.5-48.59 48S37.53 464 64 464a48 48 0 0 0 0-96zm432 16H208a16 16 0 0 0-16 16v32a16 16 0 0 0 16 16h288a16 16 0 0 0 16-16v-32a16 16 0 0 0-16-16zm0-320H208a16 16 0 0 0-16 16v32a16 16 0 0 0 16 16h288a16 16 0 0 0 16-16V80a16 16 0 0 0-16-16zm0 160H208a16 16 0 0 0-16 16v32a16 16 0 0 0 16 16h288a16 16 0 0 0 16-16v-32a16 16 0 0 0-16-16z"></path>
    </symbol>
    <symbol xmlns="http://www.w3.org/2000/svg" viewBox="0 0 512 512" id="question-circle">
<path d="M256 8C119.043 8 8 119.083 8 256c0 136.997 111.043 248 248 248s248-111.003 248-248C504 119.083 392.957 8 256 8zm0 448c-110.532 0-200-89.431-200-200 0-110.495 89.472-200 200-200 110.491 0 200 89.471 200 200 0 110.53-89.431 200-200 200zm107.244-255.2c0 67.052-72.421 68.084-72.421 92.863V300c0 6.627-5.373 12-12 12h-45.647c-6.627 0-12-5.373-12-12v-8.659c0-35.745 27.1-50.034 47.579-61.516 17.561-9.845 28.324-16.541 28.324-29.579 0-17.246-21.999-28.693-39.784-28.693-23.189 0-33.894 10.977-48.942 29.969-4.057 5.12-11.46 6.071-16.666 2.124l-27.824-21.098c-5.107-3.872-6.251-11.066-2.644-16.363C184.846 131.491 214.94 112 261.794 112c49.071 0 101.45 38.304 101.45 88.8zM298 368c0 23.159-18.841 42-42 42s-42-18.841-42-42 18.841-42 42-42 42 18.841 42 42z"></path>
    </symbol>
    <symbol xmlns="http://www.w3.org/2000/svg" viewBox="0 0 512 512" id="user-tie">
<path d="M224 256c70.7 0 128-57.3 128-128S294.7 0 224 0 96 57.3 96 128s57.3 128 128 128zm95.8 32.6L272 480l-32-136 32-56h-96l32 56-32 136-47.8-191.4C56.9 292 0 350.3 0 422.4V464c0 26.5 21.5 48 48 48h352c26.5 0 48-21.5 48-48v-41.6c0-72.1-56.9-130.4-128.2-133.8z"></path>
    </symbol>
    <symbol xmlns="http://www.w3.org/2000/svg" viewBox="0 0 512 512" id="user-circle">
<path d="M248 8C111 8 0 119 0 256s111 248 248 248 248-111 248-248S385 8 248 8zm0 96c48.6 0 88 39.4 88 88s-39.4 88-88 88-88-39.4-88-88 39.4-88 88-88zm0 344c-58.7 0-111.3-26.6-146.5-68.2 18.8-35.4 55.6-59.8 98.5-59.8 2.4 0 4.8.4 7.1 1.1 13 4.2 26.6 6.9 40.9 6.9 14.3 0 28-2.7 40.9-6.9 2.3-.7 4.7-1.1 7.1-1.1 42.9 0 79.7 24.4 98.5 59.8C359.3 421.4 306.7 448 248 448z"></path>
    </symbol>
    <symbol xmlns="http://www.w3.org/2000/svg" viewBox="0 0 512 512" id="clipboard-check">
<path d="M336 64h-80c0-35.3-28.7-64-64-64s-64 28.7-64 64H48C21.5 64 0 85.5 0 112v352c0 26.5 21.5 48 48 48h288c26.5 0 48-21.5 48-48V112c0-26.5-21.5-48-48-48zM192 40c13.3 0 24 10.7 24 24s-10.7 24-24 24-24-10.7-24-24 10.7-24 24-24zm121.2 231.8l-143 141.8c-4.7 4.7-12.3 4.6-17-.1l-82.6-83.3c-4.7-4.7-4.6-12.3.1-17L99.1 285c4.7-4.7 12.3-4.6 17 .1l46 46.4 106-105.2c4.7-4.7 12.3-4.6 17 .1l28.2 28.4c4.7 4.8 4.6 12.3-.1 17z"></path>
    </symbol>
    <symbol xmlns="http://www.w3.org/2000/svg" viewBox="0 0 512 512" id="cube">
<path d="M239.1 6.3l-208 78c-18.7 7-31.1 25-31.1 45v225.1c0 18.2 10.3 34.8 26.5 42.9l208 104c13.5 6.8 29.4 6.8 42.9 0l208-104c16.3-8.1 26.5-24.8 26.5-42.9V129.3c0-20-12.4-37.9-31.1-44.9l-208-78C262 2.2 250 2.2 239.1 6.3zM256 68.4l192 72v1.1l-192 78-192-78v-1.1l192-72zm32 356V275.5l160-65v133.9l-160 80z"></path>
    </symbol>
    <symbol xmlns="http://www.w3.org/2000/svg" viewBox="0 0 512 512" id="cuttlefish">
<path d="M344 305.5c-17.5 31.6-57.4 54.5-96 54.5-56.6 0-104-47.4-104-104s47.4-104 104-104c38.6 0 78.5 22.9 96 54.5 13.7-50.9 41.7-93.3 87-117.8C385.7 39.1 320.5 8 248 8 111 8 0 119 0 256s111 248 248 248c72.5 0 137.7-31.1 183-80.7-45.3-24.5-73.3-66.9-87-117.8z"></path>
    </symbol>
    <symbol xmlns="http://www.w3.org/2000/svg" viewBox="0 0 512 512" id="gavel">
<path d="M504.971 199.362l-22.627-22.627c-9.373-9.373-24.569-9.373-33.941 0l-5.657 5.657L329.608 69.255l5.657-5.657c9.373-9.373 9.373-24.569 0-33.941L312.638 7.029c-9.373-9.373-24.569-9.373-33.941 0L154.246 131.48c-9.373 9.373-9.373 24.569 0 33.941l22.627 22.627c9.373 9.373 24.569 9.373 33.941 0l5.657-5.657 39.598 39.598-81.04 81.04-5.657-5.657c-12.497-12.497-32.758-12.497-45.255 0L9.373 412.118c-12.497 12.497-12.497 32.758 0 45.255l45.255 45.255c12.497 12.497 32.758 12.497 45.255 0l114.745-114.745c12.497-12.497 12.497-32.758 0-45.255l-5.657-5.657 81.04-81.04 39.598 39.598-5.657 5.657c-9.373 9.373-9.373 24.569 0 33.941l22.627 22.627c9.373 9.373 24.569 9.373 33.941 0l124.451-124.451c9.372-9.372 9.372-24.568 0-33.941z"></path>
    </symbol>
    <symbol xmlns="http://www.w3.org/2000/svg" viewBox="0 0 512 512" id="clock">
<path d="M256 8C119 8 8 119 8 256s111 248 248 248 248-111 248-248S393 8 256 8zm0 448c-110.5 0-200-89.5-200-200S145.5 56 256 56s200 89.5 200 200-89.5 200-200 200zm61.8-104.4l-84.9-61.7c-3.1-2.3-4.9-5.9-4.9-9.7V116c0-6.6 5.4-12 12-12h32c6.6 0 12 5.4 12 12v141.7l66.8 48.6c5.4 3.9 6.5 11.4 2.6 16.8L334.6 349c-3.9 5.3-11.4 6.5-16.8 2.6z"></path>
    </symbol>
    <symbol xmlns="http://www.w3.org/2000/svg" viewBox="0 0 512 512" id="back">
<path d="M492 236H68.442l70.164-69.824c7.829-7.792 7.859-20.455.067-28.284-7.792-7.83-20.456-7.859-28.285-.068l-104.504 104-.018.019c-7.809 7.792-7.834 20.496-.002 28.314l.018.019 104.504 104c7.828 7.79 20.492 7.763 28.285-.068 7.792-7.829 7.762-20.492-.067-28.284L68.442 276H492c11.046 0 20-8.954 20-20s-8.954-20-20-20z"></path>
    </symbol>
    <symbol viewBox="-40 0 427 427.001" xmlns="http://www.w3.org/2000/svg" id="bin">
<path d="M232.398 154.703c-5.523 0-10 4.477-10 10v189c0 5.52 4.477 10 10 10 5.524 0 10-4.48 10-10v-189c0-5.523-4.476-10-10-10zm-118 0c-5.523 0-10 4.477-10 10v189c0 5.52 4.477 10 10 10 5.524 0 10-4.48 10-10v-189c0-5.523-4.476-10-10-10zm0 0"></path>
<path d="M28.398 127.121V373.5c0 14.563 5.34 28.238 14.668 38.05A49.246 49.246 0 0 0 78.796 427H268a49.233 49.233 0 0 0 35.73-15.45c9.329-9.812 14.668-23.487 14.668-38.05V127.121c18.543-4.922 30.559-22.836 28.079-41.863-2.485-19.024-18.692-33.254-37.88-33.258h-51.199V39.5a39.289 39.289 0 0 0-11.539-28.031A39.288 39.288 0 0 0 217.797 0H129a39.288 39.288 0 0 0-28.063 11.469A39.289 39.289 0 0 0 89.398 39.5V52H38.2C19.012 52.004 2.805 66.234.32 85.258c-2.48 19.027 9.535 36.941 28.078 41.863zM268 407H78.797c-17.098 0-30.399-14.688-30.399-33.5V128h250v245.5c0 18.813-13.3 33.5-30.398 33.5zM109.398 39.5a19.25 19.25 0 0 1 5.676-13.895A19.26 19.26 0 0 1 129 20h88.797a19.26 19.26 0 0 1 13.926 5.605 19.244 19.244 0 0 1 5.675 13.895V52h-128zM38.2 72h270.399c9.941 0 18 8.059 18 18s-8.059 18-18 18h-270.4c-9.941 0-18-8.059-18-18s8.059-18 18-18zm0 0"></path>
<path d="M173.398 154.703c-5.523 0-10 4.477-10 10v189c0 5.52 4.477 10 10 10 5.524 0 10-4.48 10-10v-189c0-5.523-4.476-10-10-10zm0 0"></path>
    </symbol>
    <symbol viewBox="-64 0 455 455" xmlns="http://www.w3.org/2000/svg" id="calculate">
<path d="M277 0H50C22.39.012.012 22.39 0 50v355c.012 27.61 22.39 49.988 50 50h227c27.61-.012 49.988-22.39 50-50V50c-.012-27.61-22.39-49.988-50-50zm30 405c-.047 16.547-13.453 29.953-30 30H50c-16.547-.047-29.953-13.453-30-30V50c.047-16.547 13.453-29.953 30-30h227c16.547.047 29.953 13.453 30 30zm0 0"></path>
<path d="M189 165h-51c-5.516.016-9.984 4.484-10 10v45c.016 5.516 4.484 9.984 10 10h51c5.516-.016 9.984-4.484 10-10v-45c-.016-5.516-4.484-9.984-10-10zm-10 45h-31v-25h31zm-80-45H48c-5.516.016-9.984 4.484-10 10v45c.016 5.516 4.484 9.984 10 10h51c5.516-.016 9.984-4.484 10-10v-45c-.016-5.516-4.484-9.984-10-10zm-10 45H58v-25h31zm190-45h-51c-5.516.016-9.984 4.484-10 10v45c.016 5.516 4.484 9.984 10 10h51c5.516-.016 9.984-4.484 10-10v-45c-.016-5.516-4.484-9.984-10-10zm-10 45h-31v-25h31zm-80 45h-51c-5.516.016-9.984 4.484-10 10v45c.016 5.516 4.484 9.984 10 10h51c5.516-.016 9.984-4.484 10-10v-45c-.016-5.516-4.484-9.984-10-10zm-10 45h-31v-25h31zm-80-45H48c-5.516.016-9.984 4.484-10 10v45c.016 5.516 4.484 9.984 10 10h51c5.516-.016 9.984-4.484 10-10v-45c-.016-5.516-4.484-9.984-10-10zm-10 45H58v-25h31zm190-45h-51c-5.516.016-9.984 4.484-10 10v45c.016 5.516 4.484 9.984 10 10h51c5.516-.016 9.984-4.484 10-10v-45c-.016-5.516-4.484-9.984-10-10zm-10 45h-31v-25h31zm-80 45h-51c-5.516.016-9.984 4.484-10 10v45c.016 5.516 4.484 9.984 10 10h51c5.516-.016 9.984-4.484 10-10v-45c-.016-5.516-4.484-9.984-10-10zm-10 45h-31v-25h31zm-80-45H48c-5.516.016-9.984 4.484-10 10v45c.016 5.516 4.484 9.984 10 10h51c5.516-.016 9.984-4.484 10-10v-45c-.016-5.516-4.484-9.984-10-10zm-10 45H58v-25h31zm190-45h-51c-5.516.016-9.984 4.484-10 10v45c.016 5.516 4.484 9.984 10 10h51c5.516-.016 9.984-4.484 10-10v-45c-.016-5.516-4.484-9.984-10-10zm-10 45h-31v-25h31zm10-345H48c-5.516.016-9.984 4.484-10 10v75c.016 5.516 4.484 9.984 10 10h231c5.516-.016 9.984-4.484 10-10V55c-.016-5.516-4.484-9.984-10-10zm-10 75H58V65h211zm0 0"></path>
    </symbol>
    <symbol viewBox="0 0 311 311.077" xmlns="http://www.w3.org/2000/svg" id="close">
<path d="M16.035 311.078c-4.097 0-8.195-1.558-11.308-4.695-6.25-6.25-6.25-16.383 0-22.633L283.789 4.687c6.25-6.25 16.383-6.25 22.633 0s6.25 16.383 0 22.637L27.363 306.383a16.045 16.045 0 0 1-11.328 4.695zm0 0"></path>
<path d="M295.117 311.078a15.879 15.879 0 0 1-11.308-4.695L4.727 27.324c-6.25-6.254-6.25-16.386 0-22.636s16.382-6.25 22.636 0L306.422 283.75c6.25 6.25 6.25 16.383 0 22.633-3.137 3.117-7.23 4.695-11.305 4.695zm0 0"></path>
    </symbol>
    <symbol xmlns="http://www.w3.org/2000/svg" viewBox="0 0 491.996 491.996" id="down-arrow">
<path d="M484.132 124.986l-16.116-16.228c-5.072-5.068-11.82-7.86-19.032-7.86-7.208 0-13.964 2.792-19.036 7.86l-183.84 183.848L62.056 108.554c-5.064-5.068-11.82-7.856-19.028-7.856s-13.968 2.788-19.036 7.856l-16.12 16.128c-10.496 10.488-10.496 27.572 0 38.06l219.136 219.924c5.064 5.064 11.812 8.632 19.084 8.632h.084c7.212 0 13.96-3.572 19.024-8.632l218.932-219.328c5.072-5.064 7.856-12.016 7.864-19.224 0-7.212-2.792-14.068-7.864-19.128z"></path>
    </symbol>
    <symbol viewBox="0 -1 401.523 401" xmlns="http://www.w3.org/2000/svg" id="edit">
<path d="M370.59 250.973c-5.524 0-10 4.476-10 10v88.789c-.02 16.562-13.438 29.984-30 30H50c-16.563-.016-29.98-13.438-30-30V89.172c.02-16.559 13.438-29.98 30-30h88.79c5.523 0 10-4.477 10-10 0-5.52-4.477-10-10-10H50c-27.602.031-49.969 22.398-50 50v260.594c.031 27.601 22.398 49.968 50 50h280.59c27.601-.032 49.969-22.399 50-50v-88.793c0-5.524-4.477-10-10-10zm0 0"></path>
<path d="M376.629 13.441c-17.574-17.574-46.067-17.574-63.64 0L134.581 191.848a9.997 9.997 0 0 0-2.566 4.402l-23.461 84.7a9.997 9.997 0 0 0 12.304 12.308l84.7-23.465a9.997 9.997 0 0 0 4.402-2.566l178.402-178.41c17.547-17.587 17.547-46.055 0-63.641zM156.37 198.348L302.383 52.332l47.09 47.09-146.016 146.016zm-9.406 18.875l37.62 37.625-52.038 14.418zM374.223 74.676L363.617 85.28l-47.094-47.094 10.61-10.605c9.762-9.762 25.59-9.762 35.351 0l11.739 11.734c9.746 9.774 9.746 25.59 0 35.36zm0 0"></path>
    </symbol>
    <symbol xmlns="http://www.w3.org/2000/svg" viewBox="0 0 512.006 512.006" id="eye">
<path d="M507.082 244.168l-48.763-48.763C342.838 80.53 169.122 80.535 54.287 195.371L4.991 244.106a16.812 16.812 0 0 0-.073 23.836l48.769 48.769c57.67 57.367 129.972 86.048 202.302 86.048 72.324 0 144.671-28.698 202.358-86.088l48.735-48.735a16.807 16.807 0 0 0 0-23.768zm-72.476 48.707c-101.812 101.302-255.389 101.291-357.184.034l-36.781-36.787 37.341-36.916c101.38-101.38 254.706-101.375 356.596 0l36.848 36.848-36.82 36.821z"></path>
<path d="M256 155.789c-55.289 0-100.271 44.982-100.271 100.271S200.711 356.331 256 356.331s100.271-44.982 100.271-100.271S311.289 155.789 256 155.789zm0 166.932c-36.759 0-66.661-29.902-66.661-66.661S219.241 189.4 256 189.4s66.655 29.908 66.655 66.661-29.896 66.66-66.655 66.66z"></path>
<path d="M256 210.126v33.611c6.913 0 12.324 5.417 12.324 12.324s-5.411 12.324-12.324 12.324-12.324-5.417-12.324-12.324h-33.611c0 25.326 20.609 45.934 45.934 45.934 25.331 0 45.934-20.603 45.934-45.934S281.326 210.126 256 210.126z"></path>
    </symbol>
    <symbol xmlns="http://www.w3.org/2000/svg" viewBox="0 0 448 512" id="globe">
<path d="M336.5 160C322 70.7 287.8 8 248 8s-74 62.7-88.5 152h177zM152 256c0 22.2 1.2 43.5 3.3 64h185.3c2.1-20.5 3.3-41.8 3.3-64s-1.2-43.5-3.3-64H155.3c-2.1 20.5-3.3 41.8-3.3 64zm324.7-96c-28.6-67.9-86.5-120.4-158-141.6 24.4 33.8 41.2 84.7 50 141.6h108zM177.2 18.4C105.8 39.6 47.8 92.1 19.3 160h108c8.7-56.9 25.5-107.8 49.9-141.6zM487.4 192H372.7c2.1 21 3.3 42.5 3.3 64s-1.2 43-3.3 64h114.6c5.5-20.5 8.6-41.8 8.6-64s-3.1-43.5-8.5-64zM120 256c0-21.5 1.2-43 3.3-64H8.6C3.2 212.5 0 233.8 0 256s3.2 43.5 8.6 64h114.6c-2-21-3.2-42.5-3.2-64zm39.5 96c14.5 89.3 48.7 152 88.5 152s74-62.7 88.5-152h-177zm159.3 141.6c71.4-21.2 129.4-73.7 158-141.6h-108c-8.8 56.9-25.6 107.8-50 141.6zM19.3 352c28.6 67.9 86.5 120.4 158 141.6-24.4-33.8-41.2-84.7-50-141.6h-108z"></path>
    </symbol>
    <symbol xmlns="http://www.w3.org/2000/svg" viewBox="0 0 426.667 426.667" id="feed">
<path d="M85.333 0h256v42.667h-256zM384 170.667H42.667C19.093 170.667 0 189.76 0 213.333V384c0 23.573 19.093 42.667 42.667 42.667H384c23.573 0 42.667-19.093 42.667-42.667V213.333c0-23.573-19.094-42.666-42.667-42.666zM170.667 368.32V229.013l128 69.653-128 69.654zm-128-282.987H384V128H42.667z"></path>
    </symbol>
    <symbol xmlns="http://www.w3.org/2000/svg" viewBox="0 0 511.997 511.997" id="link">
<path d="M212.26 390.24l-60.331 60.331c-25.012 25.012-65.517 25.012-90.508.005-24.996-24.996-24.996-65.505-.005-90.496l120.683-120.683c24.991-24.992 65.5-24.992 90.491 0 8.331 8.331 21.839 8.331 30.17 0 8.331-8.331 8.331-21.839 0-30.17-41.654-41.654-109.177-41.654-150.831 0L31.247 329.909c-41.654 41.654-41.654 109.177 0 150.831 41.649 41.676 109.177 41.676 150.853 0l60.331-60.331c8.331-8.331 8.331-21.839 0-30.17s-21.84-8.33-30.171.001z"></path>
<path d="M480.751 31.24c-41.654-41.654-109.199-41.654-150.853 0l-72.384 72.384c-8.331 8.331-8.331 21.839 0 30.17 8.331 8.331 21.839 8.331 30.17 0l72.384-72.384c24.991-24.992 65.521-24.992 90.513 0 24.991 24.991 24.991 65.5 0 90.491L317.845 284.638c-24.992 24.992-65.5 24.992-90.491 0-8.331-8.331-21.839-8.331-30.17 0s-8.331 21.839 0 30.17c41.654 41.654 109.177 41.654 150.831 0l132.736-132.736c41.654-41.654 41.654-109.178 0-150.832z"></path>
    </symbol>
    <symbol xmlns="http://www.w3.org/2000/svg" viewBox="0 0 512 512" id="logout">
<path d="M330.667 384h-21.333c-5.891 0-10.667 4.776-10.667 10.667v74.667h-256V42.667h256v74.667c0 5.891 4.776 10.667 10.667 10.667h21.333c5.891 0 10.667-4.776 10.667-10.667V42.667C341.333 19.103 322.231 0 298.667 0h-256C19.103 0 0 19.103 0 42.667v426.667C0 492.898 19.103 512 42.667 512h256c23.564 0 42.667-19.102 42.667-42.667v-74.667c-.001-5.89-4.776-10.666-10.667-10.666z"></path>
<path d="M508.542 248.135l-128-117.333c-3.125-2.844-7.656-3.625-11.5-1.896a10.655 10.655 0 0 0-6.375 9.76V160c0 3.021 1.281 5.906 3.531 7.927l74.151 66.74H138.667A10.66 10.66 0 0 0 128 245.334v21.333a10.66 10.66 0 0 0 10.667 10.667h301.682l-74.151 66.74a10.656 10.656 0 0 0-3.531 7.927v21.333c0 4.229 2.5 8.063 6.375 9.76 1.375.615 2.844.906 4.292.906 2.615 0 5.198-.969 7.208-2.802l128-117.333C510.75 261.844 512 258.99 512 256s-1.25-5.844-3.458-7.865z"></path>
    </symbol>
    <symbol viewBox="0 0 512 512" xmlns="http://www.w3.org/2000/svg" id="notification">
<path d="M450.201 407.453c-1.505-.977-12.832-8.912-24.174-32.917-20.829-44.082-25.201-106.18-25.201-150.511 0-.193-.004-.384-.011-.576-.227-58.589-35.31-109.095-85.514-131.756V57.036C315.301 25.586 289.757 0 258.359 0h-4.719c-31.398 0-56.942 25.586-56.942 57.036v34.655c-50.372 22.734-85.525 73.498-85.525 132.334 0 44.331-4.372 106.428-25.201 150.511-11.341 24.004-22.668 31.939-24.174 32.917-6.342 2.935-9.469 9.715-8.01 16.586 1.473 6.939 7.959 11.723 15.042 11.723h109.947C179.391 477.903 213.785 512 256 512s76.609-34.097 77.223-76.238H443.17c7.082 0 13.569-4.784 15.042-11.723 1.457-6.871-1.669-13.652-8.011-16.586zM226.699 57.036c0-14.881 12.086-26.987 26.942-26.987h4.719c14.856 0 26.942 12.106 26.942 26.987v24.917a144.658 144.658 0 0 0-29.306-2.987A144.695 144.695 0 0 0 226.7 81.95V57.036zM256 481.951c-25.673 0-46.614-20.617-47.223-46.188h94.445c-.608 25.57-21.549 46.188-47.222 46.188zm60.4-76.239H103.015c2.595-4.044 5.236-8.623 7.861-13.798 20.104-39.643 30.298-96.129 30.298-167.889 0-63.417 51.509-115.01 114.821-115.01s114.821 51.593 114.821 115.06c0 .185.003.369.01.553.057 71.472 10.25 127.755 30.298 167.286 2.625 5.176 5.267 9.754 7.861 13.798z"></path>
    </symbol>
    <symbol xmlns="http://www.w3.org/2000/svg" viewBox="0 0 512 512" id="pdf">
<path d="M368 256h-64c-8.837 0-16 7.163-16 16v128c0 8.837 7.163 16 16 16h64c17.673 0 32-14.327 32-32v-96c0-17.673-14.327-32-32-32zm0 128h-48v-96h48v96zm144-96v-32h-80c-8.837 0-16 7.163-16 16v144h32v-64h64v-32h-64v-32h64z"></path>
<path d="M32 464V48c0-8.837 7.163-16 16-16h240v64c0 17.673 14.327 32 32 32h64v48h32v-64a15.997 15.997 0 0 0-4.64-11.36l-96-96A16.001 16.001 0 0 0 304 0H48C21.49 0 0 21.491 0 48v416c0 26.51 21.49 48 48 48h112v-32H48c-8.836 0-16-7.163-16-16z"></path>
<path d="M240 256h-64c-8.837 0-16 7.163-16 16v144h32v-48h48c17.673 0 32-14.327 32-32v-48c0-17.673-14.327-32-32-32zm0 80h-48v-48h48v48z"></path>
    </symbol>
    <symbol xmlns="http://www.w3.org/2000/svg" viewBox="0 0 512 512" id="plus">
<path d="M256 0C114.51 0 0 114.497 0 256c0 141.49 114.497 256 256 256 141.49 0 256-114.497 256-256C512 114.51 397.503 0 256 0zm0 477.867c-122.337 0-221.867-99.529-221.867-221.867S133.663 34.133 256 34.133 477.867 133.663 477.867 256 378.337 477.867 256 477.867z"></path>
<path d="M371.345 238.933h-98.278v-98.278c0-9.425-7.641-17.067-17.067-17.067s-17.067 7.641-17.067 17.067v98.278h-98.278c-9.425 0-17.067 7.641-17.067 17.067s7.641 17.067 17.067 17.067h98.278v98.278c0 9.425 7.641 17.067 17.067 17.067s17.067-7.641 17.067-17.067v-98.278h98.278c9.425 0 17.067-7.641 17.067-17.067s-7.642-17.067-17.067-17.067z"></path>
    </symbol>
    <symbol viewBox="0 0 512.392 512.392" xmlns="http://www.w3.org/2000/svg" id="search">
<path d="M211.196 422c-116.346 0-211-94.654-211-211S94.85 0 211.196 0s211 94.654 211 211-94.654 211-211 211zm0-382c-94.29 0-171 76.71-171 171s76.71 171 171 171 171-76.71 171-171-76.71-171-171-171zm295.143 466.534c7.81-7.811 7.81-20.475 0-28.285l-89.5-89.5c-7.811-7.811-20.475-7.811-28.285 0s-7.81 20.475 0 28.285l89.5 89.5c3.905 3.905 9.024 5.857 14.143 5.857s10.236-1.952 14.142-5.857z"></path>
    </symbol>
    <symbol viewBox="0 0 512 512" xmlns="http://www.w3.org/2000/svg" id="settings">
<path d="M256 133.61c-67.484 0-122.39 54.906-122.39 122.39S188.515 378.39 256 378.39 378.39 323.485 378.39 256 323.485 133.61 256 133.61zm0 214.183c-50.613 0-91.793-41.18-91.793-91.793s41.18-91.793 91.793-91.793 91.793 41.18 91.793 91.793-41.18 91.793-91.793 91.793zm0 0"></path>
<path d="M499.953 197.703l-39.351-8.555a214.162 214.162 0 0 0-12.664-30.539l21.785-33.886a15.302 15.302 0 0 0-2.051-19.09l-61.305-61.305a15.302 15.302 0 0 0-19.09-2.05l-33.886 21.785a214.162 214.162 0 0 0-30.54-12.665l-8.554-39.351A15.298 15.298 0 0 0 299.347 0h-86.695a15.298 15.298 0 0 0-14.949 12.047l-8.555 39.351a214.162 214.162 0 0 0-30.539 12.664l-33.886-21.785a15.302 15.302 0 0 0-19.09 2.051l-61.305 61.305a15.302 15.302 0 0 0-2.05 19.09l21.785 33.886a214.162 214.162 0 0 0-12.665 30.54l-39.351 8.554A15.301 15.301 0 0 0 0 212.653v86.695a15.301 15.301 0 0 0 12.047 14.949l39.351 8.555a214.162 214.162 0 0 0 12.665 30.539l-21.786 33.886a15.302 15.302 0 0 0 2.051 19.09l61.305 61.305a15.302 15.302 0 0 0 19.09 2.05l33.886-21.785a214.162 214.162 0 0 0 30.54 12.665l8.554 39.351A15.298 15.298 0 0 0 212.653 512h86.695a15.298 15.298 0 0 0 14.949-12.047l8.555-39.351a214.162 214.162 0 0 0 30.539-12.665l33.886 21.786a15.297 15.297 0 0 0 19.09-2.051l61.305-61.305a15.302 15.302 0 0 0 2.05-19.09l-21.784-33.886a214.162 214.162 0 0 0 12.664-30.54l39.351-8.554A15.301 15.301 0 0 0 512 299.347v-86.695a15.301 15.301 0 0 0-12.047-14.949zm-18.55 89.313l-36.083 7.843a15.307 15.307 0 0 0-11.488 10.84 183.563 183.563 0 0 1-16.95 40.88 15.294 15.294 0 0 0 .454 15.792l19.98 31.078-43.863 43.867-31.082-19.98a15.287 15.287 0 0 0-15.789-.453 183.67 183.67 0 0 1-40.883 16.949 15.307 15.307 0 0 0-10.84 11.488l-7.843 36.082h-62.032l-7.843-36.082a15.307 15.307 0 0 0-10.84-11.488 183.563 183.563 0 0 1-40.88-16.95 15.303 15.303 0 0 0-15.792.454l-31.078 19.98-43.864-43.867 19.977-31.078a15.294 15.294 0 0 0 .457-15.793A183.76 183.76 0 0 1 78.168 305.7a15.302 15.302 0 0 0-11.484-10.84l-36.086-7.843v-62.032l36.082-7.843a15.307 15.307 0 0 0 11.488-10.84 183.563 183.563 0 0 1 16.95-40.88 15.294 15.294 0 0 0-.454-15.792l-19.98-31.078 43.863-43.867 31.082 19.98a15.287 15.287 0 0 0 15.789.453 183.67 183.67 0 0 1 40.883-16.949 15.307 15.307 0 0 0 10.84-11.488l7.843-36.082h62.032l7.843 36.082a15.307 15.307 0 0 0 10.84 11.488 183.563 183.563 0 0 1 40.88 16.95 15.303 15.303 0 0 0 15.792-.454l31.078-19.98 43.863 43.867-19.976 31.078a15.294 15.294 0 0 0-.457 15.793 183.576 183.576 0 0 1 16.953 40.879 15.302 15.302 0 0 0 11.484 10.84l36.086 7.843zm0 0"></path>
    </symbol>
    <symbol viewBox="-21 0 512 512" xmlns="http://www.w3.org/2000/svg" id="share">
<path d="M389.332 160c-44.094 0-80-35.883-80-80s35.906-80 80-80c44.098 0 80 35.883 80 80s-35.902 80-80 80zm0-128c-26.453 0-48 21.523-48 48s21.547 48 48 48 48-21.523 48-48-21.547-48-48-48zm0 480c-44.094 0-80-35.883-80-80s35.906-80 80-80c44.098 0 80 35.883 80 80s-35.902 80-80 80zm0-128c-26.453 0-48 21.523-48 48s21.547 48 48 48 48-21.523 48-48-21.547-48-48-48zM80 336c-44.098 0-80-35.883-80-80s35.902-80 80-80 80 35.883 80 80-35.902 80-80 80zm0-128c-26.453 0-48 21.523-48 48s21.547 48 48 48 48-21.523 48-48-21.547-48-48-48zm0 0"></path>
<path d="M135.703 240.426c-5.57 0-10.988-2.903-13.91-8.063-4.375-7.68-1.707-17.453 5.973-21.824L325.719 97.684c7.656-4.414 17.449-1.727 21.8 5.976 4.376 7.68 1.708 17.45-5.972 21.824L143.594 238.336a16.03 16.03 0 0 1-7.89 2.09zm197.93 176a15.86 15.86 0 0 1-7.895-2.11L127.785 301.461c-7.68-4.371-10.344-14.145-5.972-21.824 4.351-7.7 14.125-10.367 21.804-5.973l197.95 112.852c7.68 4.375 10.347 14.144 5.976 21.824-2.945 5.183-8.363 8.086-13.91 8.086zm0 0"></path>
    </symbol>
    <symbol viewBox="0 0 512 512" xmlns="http://www.w3.org/2000/svg" id="undo">
<path d="M154.668 213.332H16c-8.832 0-16-7.168-16-16V58.668c0-8.832 7.168-16 16-16s16 7.168 16 16v122.664h122.668c8.832 0 16 7.168 16 16s-7.168 16-16 16zm0 0"></path>
<path d="M256 512c-68.352 0-132.629-26.645-180.969-75.031-6.254-6.25-6.254-16.383 0-22.633 6.27-6.274 16.403-6.23 22.633 0C139.97 456.684 196.18 480 256 480c123.52 0 224-100.48 224-224S379.52 32 256 32C150.145 32 55.742 103.148 31.55 201.172a15.992 15.992 0 0 1-19.37 11.715C3.605 210.754-1.621 202.09.469 193.516 28.16 81.367 135.617 0 256 0c141.164 0 256 114.836 256 256S397.164 512 256 512zm0 0"></path>
    </symbol>
    <symbol viewBox="0 0 64 64" xmlns="http://www.w3.org/2000/svg" id="update">
<path d="M55.492 39.669l-4.46-5a1.995 1.995 0 0 0-2.077-.581l-6.54 2a2 2 0 0 0 1.17 3.824l2.746-.839C43.672 44.477 38.134 48 32 48c-7.525 0-13.936-5.115-15.589-12.44a2 2 0 0 0-3.901.881C14.577 45.602 22.592 52 32 52c8.015 0 15.222-4.807 18.351-12.087l2.157 2.418c.394.443.942.669 1.493.669a1.999 1.999 0 0 0 1.491-3.331zM14.46 30c.195 0 .392-.028.585-.087l6.54-2a2.001 2.001 0 0 0-1.17-3.826l-2.745.84C20.328 19.523 25.866 16 32 16c7.526 0 13.937 5.116 15.589 12.44a2.001 2.001 0 0 0 3.902-.881C49.424 18.398 41.409 12 32 12c-8.014 0-15.222 4.807-18.351 12.086l-2.157-2.418a2 2 0 0 0-2.985 2.663l4.46 5A2 2 0 0 0 14.46 30z"></path>
    </symbol>
    <symbol xmlns="http://www.w3.org/2000/svg" viewBox="0 0 330 330" id="uploadfile">
<path d="M105.604 105.605L150 61.212v183.786c0 8.284 6.716 15 15 15s15-6.716 15-15V61.213l44.392 44.392a14.954 14.954 0 0 0 10.606 4.394 14.95 14.95 0 0 0 10.607-4.394c5.858-5.858 5.858-15.355 0-21.213L175.61 14.396a15.553 15.553 0 0 0-1.104-.998c-.166-.136-.341-.254-.51-.381-.222-.167-.439-.337-.67-.492-.207-.139-.422-.259-.635-.386-.207-.125-.41-.254-.624-.369-.217-.116-.439-.213-.661-.318-.223-.105-.441-.216-.67-.311-.214-.088-.432-.16-.649-.238-.244-.088-.485-.182-.736-.258-.216-.065-.435-.112-.652-.167-.256-.065-.51-.137-.77-.189-.25-.049-.503-.078-.755-.115-.231-.034-.46-.077-.695-.1a15.342 15.342 0 0 0-1.389-.07c-.03 0-.059-.004-.089-.004-.029 0-.059.004-.088.004-.464.002-.928.025-1.391.07-.229.023-.453.065-.68.098-.258.037-.516.067-.771.118-.254.05-.5.12-.749.183-.226.057-.452.107-.676.174-.241.073-.476.164-.712.249-.225.081-.452.155-.674.247-.22.091-.43.198-.644.299-.23.108-.462.211-.688.331-.204.109-.396.233-.595.351-.223.132-.447.258-.664.403-.217.145-.42.307-.629.462-.184.137-.371.264-.549.411-.365.299-.714.616-1.049.947-.016.016-.033.029-.05.045l-70 69.999c-5.857 5.858-5.858 15.355 0 21.213 5.857 5.859 15.355 5.857 21.212.001z"></path>
<path d="M315 160c-8.284 0-15 6.716-15 15v115H30V175c0-8.284-6.716-15-15-15s-15 6.716-15 15v130c0 8.284 6.716 15 15 15h300c8.284 0 15-6.716 15-15V175c0-8.284-6.716-15-15-15z"></path>
    </symbol>
    <symbol viewBox="0 0 512 512" xmlns="http://www.w3.org/2000/svg" id="user">
<path d="M437.02 74.98C388.668 26.63 324.379 0 256 0 187.617 0 123.332 26.629 74.98 74.98 26.63 123.332 0 187.617 0 256c0 68.379 26.629 132.668 74.98 181.02C123.332 485.37 187.617 512 256 512c68.379 0 132.668-26.629 181.02-74.98C485.37 388.668 512 324.379 512 256c0-68.383-26.629-132.668-74.98-181.02zM128.34 442.387c10.707-61.649 64.129-107.121 127.66-107.121 63.535 0 116.953 45.472 127.66 107.12C347.312 467.36 303.336 482 256 482s-91.313-14.64-127.66-39.613zm46.262-218.52c0-44.887 36.515-81.398 81.398-81.398s81.398 36.515 81.398 81.398c0 44.883-36.515 81.399-81.398 81.399s-81.398-36.516-81.398-81.399zm235.043 197.711c-8.075-28.7-24.11-54.738-46.586-75.078a159.444 159.444 0 0 0-46.36-29.27c30.5-19.894 50.703-54.312 50.703-93.363 0-61.426-49.976-111.398-111.402-111.398S144.602 162.44 144.602 223.867c0 39.051 20.203 73.469 50.699 93.363a159.483 159.483 0 0 0-46.36 29.266c-22.472 20.34-38.511 46.379-46.586 75.078C57.883 380.274 30 321.336 30 256 30 131.383 131.383 30 256 30s226 101.383 226 226c0 65.34-27.883 124.277-72.355 165.578zm0 0"></path>
    </symbol>
    <symbol viewBox="0 0 512 512" xmlns="http://www.w3.org/2000/svg" id="minus">
<path d="M256 8C119 8 8 119 8 256s111 248 248 248 248-111 248-248S393 8 256 8zM124 296c-6.6 0-12-5.4-12-12v-56c0-6.6 5.4-12 12-12h264c6.6 0 12 5.4 12 12v56c0 6.6-5.4 12-12 12H124z"></path>
    </symbol>
    <symbol viewBox="0 0 448 512" xmlns="http://www.w3.org/2000/svg" id="plus-square">
<path d="M352 240v32c0 6.6-5.4 12-12 12h-88v88c0 6.6-5.4 12-12 12h-32c-6.6 0-12-5.4-12-12v-88h-88c-6.6 0-12-5.4-12-12v-32c0-6.6 5.4-12 12-12h88v-88c0-6.6 5.4-12 12-12h32c6.6 0 12 5.4 12 12v88h88c6.6 0 12 5.4 12 12zm96-160v352c0 26.5-21.5 48-48 48H48c-26.5 0-48-21.5-48-48V80c0-26.5 21.5-48 48-48h352c26.5 0 48 21.5 48 48zm-48 346V86c0-3.3-2.7-6-6-6H54c-3.3 0-6 2.7-6 6v340c0 3.3 2.7 6 6 6h340c3.3 0 6-2.7 6-6z"></path>
    </symbol>
    <symbol viewBox="0 0 448 512" xmlns="http://www.w3.org/2000/svg" id="minus-square">
<path d="M108 284c-6.6 0-12-5.4-12-12v-32c0-6.6 5.4-12 12-12h232c6.6 0 12 5.4 12 12v32c0 6.6-5.4 12-12 12H108zM448 80v352c0 26.5-21.5 48-48 48H48c-26.5 0-48-21.5-48-48V80c0-26.5 21.5-48 48-48h352c26.5 0 48 21.5 48 48zm-48 346V86c0-3.3-2.7-6-6-6H54c-3.3 0-6 2.7-6 6v340c0 3.3 2.7 6 6 6h340c3.3 0 6-2.7 6-6z"></path>
    </symbol>

<symbol viewBox="0 0 512 512" xmlns="http://www.w3.org/2000/svg" id="gear-solid"><path d="M495.9 166.6c3.2 8.7 .5 18.4-6.4 24.6l-43.3 39.4c1.1 8.3 1.7 16.8 1.7 25.4s-.6 17.1-1.7 25.4l43.3 39.4c6.9 6.2 9.6 15.9 6.4 24.6c-4.4 11.9-9.7 23.3-15.8 34.3l-4.7 8.1c-6.6 11-14 21.4-22.1 31.2c-5.9 7.2-15.7 9.6-24.5 6.8l-55.7-17.7c-13.4 10.3-28.2 18.9-44 25.4l-12.5 57.1c-2 9.1-9 16.3-18.2 17.8c-13.8 2.3-28 3.5-42.5 3.5s-28.7-1.2-42.5-3.5c-9.2-1.5-16.2-8.7-18.2-17.8l-12.5-57.1c-15.8-6.5-30.6-15.1-44-25.4L83.1 425.9c-8.8 2.8-18.6 .3-24.5-6.8c-8.1-9.8-15.5-20.2-22.1-31.2l-4.7-8.1c-6.1-11-11.4-22.4-15.8-34.3c-3.2-8.7-.5-18.4 6.4-24.6l43.3-39.4C64.6 273.1 64 264.6 64 256s.6-17.1 1.7-25.4L22.4 191.2c-6.9-6.2-9.6-15.9-6.4-24.6c4.4-11.9 9.7-23.3 15.8-34.3l4.7-8.1c6.6-11 14-21.4 22.1-31.2c5.9-7.2 15.7-9.6 24.5-6.8l55.7 17.7c13.4-10.3 28.2-18.9 44-25.4l12.5-57.1c2-9.1 9-16.3 18.2-17.8C227.3 1.2 241.5 0 256 0s28.7 1.2 42.5 3.5c9.2 1.5 16.2 8.7 18.2 17.8l12.5 57.1c15.8 6.5 30.6 15.1 44 25.4l55.7-17.7c8.8-2.8 18.6-.3 24.5 6.8c8.1 9.8 15.5 20.2 22.1 31.2l4.7 8.1c6.1 11 11.4 22.4 15.8 34.3zM256 336a80 80 0 1 0 0-160 80 80 0 1 0 0 160z"></path>
</symbol>

<symbol xmlns="http://www.w3.org/2000/svg" viewBox="0 0 384 512" id="bolt-lightning"><path d="M0 256L28.5 28c2-16 15.6-28 31.8-28H228.9c15 0 27.1 12.1 27.1 27.1c0 3.2-.6 6.5-1.7 9.5L208 160H347.3c20.2 0 36.7 16.4 36.7 36.7c0 7.4-2.2 14.6-6.4 20.7l-192.2 281c-5.9 8.6-15.6 13.7-25.9 13.7h-2.9c-15.7 0-28.5-12.8-28.5-28.5c0-2.3 .3-4.6 .9-6.9L176 288H32c-17.7 0-32-14.3-32-32z"></path>
</symbol>

<symbol xmlns="http://www.w3.org/2000/svg" viewBox="0 0 512 512" id="sun-solid"><path d="M361.5 1.2c5 2.1 8.6 6.6 9.6 11.9L391 121l107.9 19.8c5.3 1 9.8 4.6 11.9 9.6s1.5 10.7-1.6 15.2L446.9 256l62.3 90.3c3.1 4.5 3.7 10.2 1.6 15.2s-6.6 8.6-11.9 9.6L391 391 371.1 498.9c-1 5.3-4.6 9.8-9.6 11.9s-10.7 1.5-15.2-1.6L256 446.9l-90.3 62.3c-4.5 3.1-10.2 3.7-15.2 1.6s-8.6-6.6-9.6-11.9L121 391 13.1 371.1c-5.3-1-9.8-4.6-11.9-9.6s-1.5-10.7 1.6-15.2L65.1 256 2.8 165.7c-3.1-4.5-3.7-10.2-1.6-15.2s6.6-8.6 11.9-9.6L121 121 140.9 13.1c1-5.3 4.6-9.8 9.6-11.9s10.7-1.5 15.2 1.6L256 65.1 346.3 2.8c4.5-3.1 10.2-3.7 15.2-1.6zM160 256a96 96 0 1 1 192 0 96 96 0 1 1 -192 0zm224 0a128 128 0 1 0 -256 0 128 128 0 1 0 256 0z"></path>
</symbol>
<symbol xmlns="http://www.w3.org/2000/svg" viewBox="0 0 448 512" id="quote-left"><path d="M0 216C0 149.7 53.7 96 120 96h8c17.7 0 32 14.3 32 32s-14.3 32-32 32h-8c-30.9 0-56 25.1-56 56v8h64c35.3 0 64 28.7 64 64v64c0 35.3-28.7 64-64 64H64c-35.3 0-64-28.7-64-64V320 288 216zm256 0c0-66.3 53.7-120 120-120h8c17.7 0 32 14.3 32 32s-14.3 32-32 32h-8c-30.9 0-56 25.1-56 56v8h64c35.3 0 64 28.7 64 64v64c0 35.3-28.7 64-64 64H320c-35.3 0-64-28.7-64-64V320 288 216z"></path>
</symbol>
<symbol xmlns="http://www.w3.org/2000/svg" viewBox="0 0 448 512" id="quote-right"><path d="M448 296c0 66.3-53.7 120-120 120h-8c-17.7 0-32-14.3-32-32s14.3-32 32-32h8c30.9 0 56-25.1 56-56v-8H320c-35.3 0-64-28.7-64-64V160c0-35.3 28.7-64 64-64h64c35.3 0 64 28.7 64 64v32 32 72zm-256 0c0 66.3-53.7 120-120 120H64c-17.7 0-32-14.3-32-32s14.3-32 32-32h8c30.9 0 56-25.1 56-56v-8H64c-35.3 0-64-28.7-64-64V160c0-35.3 28.7-64 64-64h64c35.3 0 64 28.7 64 64v32 32 72z"></path>
</symbol>

</svg>